<svg id="Capa_1" enable-background="new 0 0 512 512" height="512" viewBox="0 0 512 512" width="512" xmlns="http://www.w3.org/2000/svg"><g><g fill="#80eaff"><path d="m158.4 96c-3.201 15.68-10.881 29.76-21.76 40.639-14.4 14.4-34.56 23.361-56.64 23.361-44.16 0-80-35.84-80-80 0-22.08 8.961-42.24 23.359-56.641 14.401-14.4 34.561-23.359 56.641-23.359s42.24 8.959 56.641 23.359c10.879 10.881 18.558 24.961 21.759 40.641l-30.4 16z"/><path d="m160 432c0 22.08-8.961 42.24-23.359 56.639-14.401 14.4-34.561 23.361-56.641 23.361-44.16 0-80-35.84-80-80 0-22.08 8.961-42.24 23.359-56.641 10.881-10.879 24.961-18.56 40.641-21.759l16 30.4 16-30.4c15.68 3.199 29.76 10.881 40.641 21.76 14.398 14.4 23.359 34.56 23.359 56.64z"/><path d="m512 80c0 22.08-8.961 42.24-23.359 56.639-10.881 10.881-24.961 18.56-40.641 21.761l-15.2-30.4-16.8 30.4c-36.48-7.361-64-39.682-64-78.4 0-22.08 8.961-42.24 23.359-56.641 14.401-14.4 34.561-23.359 56.641-23.359s42.24 8.959 56.641 23.359c14.398 14.401 23.359 34.561 23.359 56.641z"/><path d="m512 432c0 22.08-8.961 42.24-23.359 56.639-14.401 14.4-34.561 23.361-56.641 23.361-38.721 0-71.039-27.52-78.4-64l30.4-15.2-30.4-16.8c3.201-15.68 10.881-29.76 21.76-40.641 14.4-14.4 34.56-23.359 56.64-23.359s42.24 8.959 56.641 23.359c14.398 14.401 23.359 34.561 23.359 56.641z"/><path d="m352 256c0-6.08-.641-11.84-1.6-17.6l32.32-18.561-32-55.68-32.641 19.199c-8.961-7.68-18.881-13.439-30.08-17.6v-37.758h-64v37.76c-11.199 4.16-21.119 9.92-30.08 17.6l-32.641-19.199-32 55.68 32.322 18.559c-.959 5.76-1.6 11.52-1.6 17.6s.641 11.84 1.6 17.6l-32.32 18.561 32 55.68 32.641-19.201c8.961 7.682 18.881 13.441 30.08 17.602v37.758h64v-37.76c11.199-4.16 21.119-9.92 30.08-17.602l32.641 19.201 32-55.68-32.322-18.559c.959-5.76 1.6-11.52 1.6-17.6zm-96 32c-17.6 0-32-14.4-32-32s14.4-32 32-32 32 14.4 32 32-14.4 32-32 32z"/></g><path d="m256 64v32h-97.6l-30.4-16 30.4-16z" fill="#4db5ff"/><path d="m384 432.8-30.4 15.2h-97.6v-32h97.6z" fill="#4db5ff"/><path d="m448 158.4v97.6h-32v-97.6l16-30.4z" fill="#4db5ff"/><path d="m96 256v97.6l-16 30.4-16-30.4v-97.6z" fill="#4db5ff"/><path d="m160 80c0 5.439-.641 10.879-1.6 16h-30.4v-32h30.4c.959 5.119 1.6 10.559 1.6 16z" fill="#37f"/><path d="m448 128v30.4c-5.119.959-10.561 1.6-16 1.6s-10.881-.641-16-1.6v-30.4z" fill="#37f"/><path d="m96 353.6v30.4h-32v-30.4c5.119-.961 10.561-1.6 16-1.6s10.881.639 16 1.6z" fill="#37f"/><path d="m384 416v32h-30.4c-.959-5.121-1.6-10.561-1.6-16 0-5.441.641-10.881 1.6-16z" fill="#37f"/></g></svg>